# xmcd
#
# Track frame offsets:
#	150
#	11645
#	26050
#	43562
#	55695
#	78007
#	92522
#	105842
#	118687
#	130155
#	144550
#	161965
#	174020
#	196290
#	210770
#	224095
#	248312
#
# Disc length: 3323 seconds
#
# Revision: 0
# Processed by: cddbd v1.5.2PL0 Copyright (c) Steve Scherf et al.
# Submitted via: audiograbber 1.83.01
#
DISCID=d10cf911
DTITLE=Sound Choice - SC2124
DYEAR=1900
DGENRE=Country
TTITLE0=Willie Nelson - Blue Eyes Crying In The Rain
TTITLE1=Charlie Rich - Behind Closed Door
TTITLE2=Willie Nelson - Always On My Mind
TTITLE3=Faron Young - Hello Walls
TTITLE4=Marty Robbins - El Paso
TTITLE5=Hank Williams - Hey Good Lookin'
TTITLE6=Johnny Cash - Folsom Prison Blues
TTITLE7=Freddy Fender - Before The Next Teardrop Falls
TTITLE8=Willie Nelson - Blue Eyes Crying In The Rain (Vocals)
TTITLE9=Charlie Rich - Behind Closed Door (Vocals)
TTITLE10=Willie Nelson - Always On My Mind (Vocals)
TTITLE11=Faron Young - Hello Walls (Vocals)
TTITLE12=Marty Robbins - El Paso (Vocals)
TTITLE13=Hank Williams - Hey Good Lookin' (Vocals)
TTITLE14=Johnny Cash - Folsom Prison Blues (Vocals)
TTITLE15=Freddy Fender - Before The Next Teardrop Falls (Vocals)
TTITLE16=Data Track
EXTD=
EXTT0=
EXTT1=
EXTT2=
EXTT3=
EXTT4=
EXTT5=
EXTT6=
EXTT7=
EXTT8=
EXTT9=
EXTT10=
EXTT11=
EXTT12=
EXTT13=
EXTT14=
EXTT15=
EXTT16=
PLAYORDER=
